<svg xmlns="http://www.w3.org/2000/svg" width="1024" height="1536" viewBox="0 0 1024 1536" fill="none">
  <rect width="1024" height="1536" fill="transparent"/>
  <path fill="rgba(64,120,210,0.45)" d="M512 220C430 220 370 300 370 390C370 460 410 510 460 530L430 560C360 590 330 680 340 780L360 1100C365 1180 390 1260 430 1320L450 1440L574 1440L594 1320C634 1260 659 1180 664 1100L684 780C694 680 664 590 594 560L564 530C614 510 654 460 654 390C654 300 594 220 512 220Z"/>
  <line x1="120" y1="1440" x2="904" y2="1440" stroke="rgba(220,40,80,0.85)" stroke-width="4" stroke-dasharray="16 10"/>
  <circle cx="512" cy="1440" r="8" fill="rgba(220,40,80,0.95)"/>
  <text x="528" y="1428" fill="rgba(220,40,80,0.95)" font-size="28" font-family="monospace">y=1440</text>
</svg>
