<svg xmlns="http://www.w3.org/2000/svg" width="1024" height="1536" viewBox="0 0 1024 1536" fill="none">
  <rect width="1024" height="1536" fill="transparent"/>
  <path fill="rgba(230,90,140,0.42)" d="M512 180C400 180 340 260 330 340C320 420 350 470 390 500L410 560L450 520L512 540L574 520L614 560L634 500C674 470 704 420 694 340C684 260 624 180 512 180Z"/>
  <path fill="rgba(230,90,140,0.35)" d="M390 360C360 420 350 500 360 560L400 540C400 480 410 420 430 380Z"/>
  <path fill="rgba(230,90,140,0.35)" d="M634 360C664 420 674 500 664 560L624 540C624 480 614 420 594 380Z"/>
  <line x1="120" y1="1440" x2="904" y2="1440" stroke="rgba(220,40,80,0.85)" stroke-width="4" stroke-dasharray="16 10"/>
  <circle cx="512" cy="1440" r="8" fill="rgba(220,40,80,0.95)"/>
</svg>
