<svg xmlns="http://www.w3.org/2000/svg" width="1024" height="1536" viewBox="0 0 1024 1536" fill="none">
  <rect width="1024" height="1536" fill="transparent"/>
  <path fill="rgba(150,70,210,0.40)" d="M430 560L380 620C340 700 330 820 340 940L350 1180C355 1260 380 1330 420 1380L450 1440L574 1440L604 1380C644 1330 669 1260 674 1180L684 940C694 820 684 700 644 620L594 560L564 600L512 640L460 600Z"/>
  <path fill="rgba(150,70,210,0.28)" d="M370 640C300 700 280 820 300 920L320 980L370 940C360 820 370 720 400 670Z"/>
  <path fill="rgba(150,70,210,0.28)" d="M654 640C724 700 744 820 724 920L704 980L654 940C664 820 654 720 624 670Z"/>
  <line x1="120" y1="1440" x2="904" y2="1440" stroke="rgba(220,40,80,0.85)" stroke-width="4" stroke-dasharray="16 10"/>
  <circle cx="512" cy="1440" r="8" fill="rgba(220,40,80,0.95)"/>
</svg>
