<svg xmlns="http://www.w3.org/2000/svg" viewBox="0 0 1200 1600" fill="none">
<defs>
  <linearGradient id="bg" x1="600" y1="0" x2="600" y2="1600" gradientUnits="userSpaceOnUse">
    <stop stop-color="#D9CEF0"/><stop offset=".48" stop-color="#F4EAF4"/><stop offset="1" stop-color="#E9DFF4"/>
  </linearGradient>
  <radialGradient id="light" cx="0" cy="0" r="1" gradientTransform="translate(600 420) rotate(90) scale(520 460)" gradientUnits="userSpaceOnUse">
    <stop stop-color="#FFFDF8" stop-opacity=".95"/><stop offset="1" stop-color="#FFFDF8" stop-opacity="0"/>
  </radialGradient>
  <filter id="blur"><feGaussianBlur stdDeviation="8"/></filter>
</defs>
<rect width="1200" height="1600" fill="url(#bg)"/>
<rect width="1200" height="1100" fill="url(#light)"/>
<path d="M190 1370V590C190 290 360 120 600 120C840 120 1010 290 1010 590V1370" stroke="#C6A65A" stroke-opacity=".34" stroke-width="4"/>
<path d="M250 1370V620C250 350 395 200 600 200C805 200 950 350 950 620V1370" stroke="#FFF9EA" stroke-opacity=".72" stroke-width="3"/>
<g fill="#FFF8E8">
  <circle cx="154" cy="260" r="4"/><circle cx="1040" cy="300" r="5"/><circle cx="930" cy="180" r="3"/>
  <circle cx="250" cy="170" r="3"/><circle cx="780" cy="260" r="4"/><circle cx="480" cy="210" r="3"/>
</g>
<g stroke="#D9B969" stroke-opacity=".62">
  <path d="M120 350h36m-18-18v36"/><path d="M1030 420h44m-22-22v44"/>
  <path d="M820 150h30m-15-15v30"/><path d="M330 290h24m-12-12v24"/>
</g>
<ellipse cx="600" cy="1370" rx="330" ry="72" fill="#7C659E" fill-opacity=".12" filter="url(#blur)"/>
</svg>